<svg width="16" height="17" viewBox="0 0 16 17" fill="none" xmlns="http://www.w3.org/2000/svg">
<g clip-path="url(#clip0_338_1549)">
<path fill-rule="evenodd" clip-rule="evenodd" d="M2.50002 7.7C2.0582 7.7 1.70002 8.05817 1.70002 8.5C1.70002 8.94183 2.0582 9.3 2.50002 9.3L11.5687 9.3L8.43438 12.4343C8.12196 12.7467 8.12196 13.2533 8.43438 13.5657C8.7468 13.8781 9.25333 13.8781 9.56575 13.5657L14.0657 9.06568C14.1543 8.97717 14.2177 8.87309 14.256 8.76225C14.2757 8.70547 14.2892 8.64579 14.2957 8.58401C14.3017 8.52653 14.3015 8.46852 14.2951 8.41107C14.2887 8.35278 14.276 8.29638 14.2577 8.24255C14.2195 8.12991 14.1555 8.0241 14.0657 7.93431L9.56575 3.43431C9.25333 3.12189 8.7468 3.12189 8.43438 3.43431C8.12196 3.74673 8.12196 4.25326 8.43438 4.56568L11.5687 7.7L2.50002 7.7Z" fill="white"/>
</g>
<defs>
<clipPath id="clip0_338_1549">
<rect width="16" height="16" fill="white" transform="translate(0 0.5)"/>
</clipPath>
</defs>
</svg>
