<svg width="32" height="32" viewBox="0 0 32 32" fill="none" xmlns="http://www.w3.org/2000/svg">
<path d="M27.9815 5.77097L17.002 12.3064C16.9363 12.3455 16.937 12.4409 17.0033 12.479L27.8322 18.7025C27.8988 18.7408 27.8992 18.8366 27.833 18.8755L22.5367 21.9855L7.01172 13.249C6.33857 12.8702 6.33075 11.9038 6.99767 11.5141L21.8048 2.86301C22.1115 2.68384 22.4901 2.68078 22.7997 2.85496L27.9815 5.77097ZM27.9815 5.77097V11.8291C27.9815 12.1796 27.798 12.5045 27.4978 12.6854L22.2999 15.8194" stroke="white" stroke-width="2"/>
<path d="M22.5367 28.6084V21.9855L27.8308 18.8767C27.8975 18.8376 27.9815 18.8857 27.9815 18.963V24.8387C27.9815 25.1933 27.7937 25.5214 27.4878 25.701L22.5367 28.6084ZM22.5367 28.6084L5.01852 18.7883V12.3938" stroke="white" stroke-width="2"/>
<path d="M16.3816 6.22772L11.241 2.92161C10.9115 2.70971 10.4886 2.70971 10.1592 2.92161L5.4776 5.93247C5.19147 6.11649 5.01852 6.43335 5.01852 6.77354V24.4266C5.01852 24.7569 5.18162 25.0659 5.45433 25.2522L10.1359 28.4512C10.4761 28.6837 10.9241 28.6837 11.2643 28.4512L16.3816 24.9544" stroke="white" stroke-width="2"/>
</svg>
