<svg width="32.000191" height="32.000000" viewBox="0 0 32.0002 32" fill="none" xmlns="http://www.w3.org/2000/svg" xmlns:xlink="http://www.w3.org/1999/xlink">
	<desc>
			Created with Pixso.
	</desc>
	<defs/>
	<path id="Union" d="M31.4171 7.86377L16.0088 3.73511L0.583054 7.86841L0 5.6925L15.9612 1.41565L15.9676 1.39185L32.0002 5.68774L31.4171 7.86377ZM6.14429 8.89697L6.14429 28.6084L8.39703 28.6084L11.7917 25.2137L11.7761 25.1982L15.6873 21.287L15.7029 21.3025L16.529 20.4763L22.4083 26.3557L17.7789 26.3557L15.7917 24.3685L14.1988 25.9614L14.593 26.3557L14.5921 26.3557L16.8448 28.6084L25.8557 28.6084L25.8557 8.89697L17.4429 8.89697L17.2206 9.11938L15.1901 11.1497L8.39703 17.943L8.39703 11.1497L12.0043 11.1497L14.257 8.89697L6.14429 8.89697ZM18.3761 11.1497L22.6699 11.1497L8.39703 25.4226L8.39703 21.1288L18.3761 11.1497ZM23.603 13.4025L23.603 24.3645L18.122 18.8834L23.603 13.4025Z" clip-rule="evenodd" fill="#FFFFFF" fill-opacity="1.000000" fill-rule="evenodd"/>
</svg>
