<svg width="16" height="17" viewBox="0 0 16 17" fill="none" xmlns="http://www.w3.org/2000/svg">
<g clip-path="url(#clip0_117_631)">
<path fill-rule="evenodd" clip-rule="evenodd" d="M2.49995 7.7C2.05813 7.7 1.69995 8.05817 1.69995 8.5C1.69995 8.94183 2.05813 9.3 2.49995 9.3L11.5686 9.3L8.43431 12.4343C8.12189 12.7467 8.12189 13.2533 8.43431 13.5657C8.74673 13.8781 9.25326 13.8781 9.56568 13.5657L14.0657 9.06568C14.1542 8.97717 14.2176 8.87309 14.256 8.76225C14.2757 8.70547 14.2891 8.64579 14.2956 8.58401C14.3016 8.52653 14.3015 8.46852 14.2951 8.41107C14.2886 8.35278 14.2759 8.29638 14.2576 8.24255C14.2194 8.12991 14.1555 8.0241 14.0657 7.93431L9.56568 3.43431C9.25326 3.12189 8.74673 3.12189 8.43431 3.43431C8.12189 3.74673 8.12189 4.25326 8.43431 4.56568L11.5686 7.7L2.49995 7.7Z" fill="#38B524"/>
</g>
<defs>
<clipPath id="clip0_117_631">
<rect width="16" height="16" fill="white" transform="translate(0 0.5)"/>
</clipPath>
</defs>
</svg>
